<svg width="58" height="58" viewBox="0 0 58 58" fill="none" xmlns="http://www.w3.org/2000/svg">
<rect width="57.6" height="57.6" transform="translate(0.00012207 0.199768)" fill="white"/>
<path d="M47.7601 50.5398L31.9801 34.7598C30.7801 35.7998 29.3809 36.6098 27.7825 37.1898C26.1842 37.7698 24.4834 38.0598 22.6801 38.0598C18.3536 38.0598 14.692 36.5598 11.6952 33.5598C8.69845 30.5598 7.20007 26.9398 7.20007 22.6998C7.20007 18.4598 8.70007 14.8398 11.7001 11.8398C14.7001 8.83978 18.3301 7.33978 22.5901 7.33978C26.8501 7.33978 30.4701 8.83978 33.4501 11.8398C36.4301 14.8398 37.9201 18.4628 37.9201 22.7088C37.9201 24.4228 37.6401 26.0798 37.0801 27.6798C36.5201 29.2798 35.6801 30.7798 34.5601 32.1798L50.4001 47.8998L47.7601 50.5398ZM22.6201 34.4598C25.8701 34.4598 28.6326 33.3098 30.9076 31.0098C33.1826 28.7098 34.3201 25.9398 34.3201 22.6998C34.3201 19.4598 33.1826 16.6898 30.9076 14.3898C28.6326 12.0898 25.8701 10.9398 22.6201 10.9398C19.3368 10.9398 16.5459 12.0898 14.2476 14.3898C11.9492 16.6898 10.8001 19.4598 10.8001 22.6998C10.8001 25.9398 11.9492 28.7098 14.2476 31.0098C16.5459 33.3098 19.3368 34.4598 22.6201 34.4598Z" fill="#029992"/>
</svg>
