<svg width="58" height="59" viewBox="0 0 58 59" fill="none" xmlns="http://www.w3.org/2000/svg">
<rect width="57.6" height="57.6" transform="translate(0.00012207 0.599792)" fill="white"/>
<path d="M19.2601 48.5998C18.3001 48.5998 17.4601 48.2398 16.7401 47.5198C16.0201 46.7998 15.6601 45.9598 15.6601 44.9998V38.9998H23.1001V31.3798C21.5801 31.4998 20.0601 31.2898 18.5401 30.7498C17.0201 30.2098 15.6601 29.3598 14.4601 28.1998V24.7198H11.4601L3.6001 16.8598C5.0401 15.4998 6.7601 14.3898 8.7601 13.5298C10.7601 12.6698 12.8001 12.2398 14.8801 12.2398C16.0801 12.2398 17.4501 12.4298 18.9901 12.8098C20.5301 13.1898 21.9001 13.7998 23.1001 14.6398V10.1998H50.4001V42.2998C50.4001 44.0598 49.7901 45.5498 48.5701 46.7698C47.3501 47.9898 45.8601 48.5998 44.1001 48.5998H19.2601ZM26.7001 38.9998H41.4001V42.2998C41.4001 43.0998 41.6501 43.7498 42.1501 44.2498C42.6501 44.7498 43.3001 44.9998 44.1001 44.9998C44.9001 44.9998 45.5501 44.7498 46.0501 44.2498C46.5501 43.7498 46.8001 43.0998 46.8001 42.2998V13.7998H26.7001V17.2198L41.1601 31.6798V34.2598H38.5801L31.0201 26.6998L30.0001 27.8998C29.4801 28.4998 28.9601 28.9598 28.4401 29.2798C27.9201 29.5998 27.3401 29.8998 26.7001 30.1798V38.9998ZM13.0801 21.1198H18.0601V26.4598C18.7401 26.8998 19.4101 27.2298 20.0701 27.4498C20.7301 27.6698 21.4001 27.7798 22.0801 27.7798C23.0801 27.7798 24.1001 27.5098 25.1401 26.9698C26.1801 26.4298 26.9401 25.8798 27.4201 25.3198L28.4401 24.1198L24.3001 19.9798C23.0201 18.6998 21.5801 17.6898 19.9801 16.9498C18.3801 16.2098 16.6801 15.8398 14.8801 15.8398C13.8001 15.8398 12.8201 15.9698 11.9401 16.2298C11.0601 16.4898 10.1601 16.8398 9.2401 17.2798L13.0801 21.1198ZM37.8001 42.5998H19.2601V44.9998H38.6401C38.4001 44.7598 38.2001 44.4298 38.0401 44.0098C37.8801 43.5898 37.8001 43.1198 37.8001 42.5998Z" fill="#029992"/>
</svg>
