<svg width="58" height="58" viewBox="0 0 58 58" fill="none" xmlns="http://www.w3.org/2000/svg">
<rect width="57.6" height="57.6" transform="translate(0.400024 0.199768)" fill="white"/>
<path d="M29.2001 48.1997C23.8801 48.1997 19.3501 46.3297 15.6101 42.5897C11.8701 38.8497 10.0001 34.3197 10.0001 28.9997C10.0001 23.6797 11.8701 19.1497 15.6101 15.4097C19.3501 11.6697 23.8801 9.79974 29.2001 9.79974C32.6001 9.79974 35.5801 10.4897 38.1401 11.8697C40.7001 13.2497 42.9201 15.1397 44.8001 17.5397V9.79974H48.4001V25.0397H33.1601V21.4397H43.2401C41.7201 19.0397 39.7801 17.0997 37.4201 15.6197C35.0601 14.1397 32.3201 13.3997 29.2001 13.3997C24.8401 13.3997 21.1501 14.9097 18.1301 17.9297C15.1101 20.9497 13.6001 24.6397 13.6001 28.9997C13.6001 33.3597 15.1101 37.0497 18.1301 40.0697C21.1501 43.0897 24.8401 44.5997 29.2001 44.5997C32.5201 44.5997 35.5601 43.6497 38.3201 41.7497C41.0801 39.8497 43.0001 37.3397 44.0801 34.2197H47.8001C46.6401 38.4197 44.3401 41.7997 40.9001 44.3597C37.4601 46.9197 33.5601 48.1997 29.2001 48.1997Z" fill="#029992"/>
</svg>
