<svg width="30" height="30" viewBox="0 0 30 30" fill="none" xmlns="http://www.w3.org/2000/svg">
<rect width="28.8" height="28.8" transform="translate(0.799377 0.827637)" fill="white"/>
<path d="M24.6794 25.9976L16.7894 18.1076C16.1894 18.6276 15.4898 19.0326 14.6906 19.3226C13.8914 19.6126 13.041 19.7576 12.1394 19.7576C9.97611 19.7576 8.1453 19.0076 6.64692 17.5076C5.14854 16.0076 4.39935 14.1976 4.39935 12.0776C4.39935 9.95758 5.14935 8.14758 6.64935 6.64758C8.14935 5.14758 9.96435 4.39758 12.0944 4.39758C14.2244 4.39758 16.0344 5.14758 17.5244 6.64758C19.0144 8.14758 19.7594 9.95908 19.7594 12.0821C19.7594 12.9391 19.6194 13.7676 19.3394 14.5676C19.0594 15.3676 18.6394 16.1176 18.0794 16.8176L25.9994 24.6776L24.6794 25.9976ZM12.1094 17.9576C13.7344 17.9576 15.1156 17.3826 16.2531 16.2326C17.3906 15.0826 17.9594 13.6976 17.9594 12.0776C17.9594 10.4576 17.3906 9.07258 16.2531 7.92258C15.1156 6.77258 13.7344 6.19758 12.1094 6.19758C10.4677 6.19758 9.07227 6.77258 7.92309 7.92258C6.77393 9.07258 6.19935 10.4576 6.19935 12.0776C6.19935 13.6976 6.77393 15.0826 7.92309 16.2326C9.07227 17.3826 10.4677 17.9576 12.1094 17.9576Z" fill="#029992"/>
</svg>
